<svg xmlns="http://www.w3.org/2000/svg" xmlns:xlink="http://www.w3.org/1999/xlink" width="39.784" height="39.689" viewBox="0 0 39.784 39.689">
  <defs>
    <linearGradient id="linear-gradient" x1="0.865" y1="0.88" x2="0.644" y2="0.298" gradientUnits="objectBoundingBox">
      <stop offset="0" stop-color="#6852ed"/>
      <stop offset="1" stop-color="#ba43fc"/>
    </linearGradient>
    <linearGradient id="linear-gradient-2" x1="1" y1="0.5" x2="0" y2="0.5" xlink:href="#linear-gradient"/>
  </defs>
  <g id="Logo" transform="translate(0 0)">
    <path id="Fill_1" data-name="Fill 1" d="M22.312,18.784c-2.574,4.542-8.163,6.566-9.016,3.3-1.671,4.277.465,7.581,4.625,7.78-5.543.324-7.953-4.034-5.989-8.687C15.647,12.367,36.407,11.676,27.043,0c5.02,7.785-8.582,11.006-14.588,11.565C3.888,12.363-.154,18.142,0,23.361c.209,6.859,8.588,9.745,15.18,8.446a20.046,20.046,0,0,0,13.287-9.2c5.068-8.378.12-14.9-6.16-3.82" transform="translate(9.218 7.58)" fill="url(#linear-gradient)"/>
    <path id="Fill_4" data-name="Fill 4" d="M1.313,13.317c2.4-3.541,6.511-5.34,11.428-5.953,5.981-6.149,14.576-3.688,15.245-.688,2.254-1.156,1.952-3.341-1.545-4.594,8.135,2.348,3.066,7.663-5.185,6.971C2.066,7.442-7.1,21.572,6.45,34.287,2.159,24.857,11.9,16.7,22.7,16.386c6.426-.188,18.08-4.472,11.955-10.578C24.349-4.468,6.247-.581,1.313,13.317" transform="translate(0 0)" fill="url(#linear-gradient-2)"/>
  </g>
</svg>
